<svg width="64" height="29" viewBox="0 0 64 29" fill="none" xmlns="http://www.w3.org/2000/svg">
<rect x="0.5" y="0.5" width="63" height="28" rx="8.5" fill="#4776F4"/>
<rect x="0.5" y="0.5" width="63" height="28" rx="8.5" stroke="#4776F4"/>
<path d="M11.485 13.75H10.8686C10.8321 13.5727 10.7683 13.4169 10.6772 13.2827C10.5877 13.1484 10.4783 13.0357 10.349 12.9446C10.2214 12.8518 10.0797 12.7822 9.92396 12.7358C9.76818 12.6894 9.60578 12.6662 9.43675 12.6662C9.12851 12.6662 8.84927 12.7441 8.59903 12.8999C8.35045 13.0556 8.15242 13.2852 8.00493 13.5884C7.85909 13.8917 7.78618 14.2637 7.78618 14.7045C7.78618 15.1454 7.85909 15.5174 8.00493 15.8207C8.15242 16.1239 8.35045 16.3535 8.59903 16.5092C8.84927 16.665 9.12851 16.7429 9.43675 16.7429C9.60578 16.7429 9.76818 16.7197 9.92396 16.6733C10.0797 16.6269 10.2214 16.5581 10.349 16.467C10.4783 16.3742 10.5877 16.2607 10.6772 16.1264C10.7683 15.9905 10.8321 15.8348 10.8686 15.6591H11.485C11.4386 15.9193 11.3541 16.1521 11.2315 16.3576C11.1089 16.5631 10.9564 16.7379 10.7741 16.8821C10.5918 17.0246 10.3871 17.1332 10.1601 17.2077C9.93473 17.2823 9.69361 17.3196 9.43675 17.3196C9.00256 17.3196 8.61643 17.2135 8.27836 17.0014C7.9403 16.7893 7.67432 16.4877 7.48042 16.0966C7.28653 15.7055 7.18959 15.2415 7.18959 14.7045C7.18959 14.1676 7.28653 13.7036 7.48042 13.3125C7.67432 12.9214 7.9403 12.6198 8.27836 12.4077C8.61643 12.1955 9.00256 12.0895 9.43675 12.0895C9.69361 12.0895 9.93473 12.1268 10.1601 12.2013C10.3871 12.2759 10.5918 12.3853 10.7741 12.5295C10.9564 12.672 11.1089 12.846 11.2315 13.0515C11.3541 13.2553 11.4386 13.4882 11.485 13.75ZM14.8079 15.6889V13.4318H15.3946V17.25H14.8079V16.6037H14.7682C14.6787 16.7976 14.5395 16.9625 14.3505 17.0984C14.1616 17.2326 13.923 17.2997 13.6346 17.2997C13.396 17.2997 13.1839 17.2475 12.9983 17.1431C12.8127 17.0371 12.6668 16.878 12.5608 16.6658C12.4547 16.4521 12.4017 16.1828 12.4017 15.858V13.4318H12.9883V15.8182C12.9883 16.0966 13.0662 16.3187 13.222 16.4844C13.3794 16.6501 13.5799 16.733 13.8236 16.733C13.9694 16.733 14.1177 16.6957 14.2685 16.6211C14.421 16.5465 14.5486 16.4322 14.6513 16.2781C14.7557 16.1239 14.8079 15.9276 14.8079 15.6889ZM19.1736 14.2869L18.6466 14.4361C18.6135 14.3482 18.5646 14.2629 18.5 14.18C18.437 14.0955 18.3508 14.0259 18.2414 13.9712C18.1321 13.9165 17.992 13.8892 17.8213 13.8892C17.5877 13.8892 17.3929 13.9431 17.2372 14.0508C17.0831 14.1568 17.006 14.2919 17.006 14.456C17.006 14.6018 17.059 14.717 17.1651 14.8015C17.2711 14.886 17.4369 14.9564 17.6622 15.0128L18.229 15.152C18.5704 15.2348 18.8248 15.3616 18.9921 15.5323C19.1595 15.7013 19.2432 15.9193 19.2432 16.1861C19.2432 16.4048 19.1802 16.6004 19.0543 16.7727C18.93 16.9451 18.756 17.081 18.5323 17.1804C18.3085 17.2798 18.0484 17.3295 17.7517 17.3295C17.3623 17.3295 17.04 17.245 16.7848 17.076C16.5295 16.907 16.368 16.66 16.3 16.3352L16.8568 16.196C16.9099 16.4015 17.0101 16.5556 17.1576 16.6584C17.3068 16.7611 17.5015 16.8125 17.7418 16.8125C18.0152 16.8125 18.2323 16.7545 18.3931 16.6385C18.5555 16.5208 18.6367 16.38 18.6367 16.2159C18.6367 16.0833 18.5903 15.9723 18.4975 15.8828C18.4047 15.7917 18.2621 15.7237 18.0699 15.679L17.4335 15.5298C17.0839 15.447 16.827 15.3185 16.663 15.1445C16.5005 14.9689 16.4193 14.7493 16.4193 14.4858C16.4193 14.2704 16.4798 14.0798 16.6008 13.9141C16.7234 13.7483 16.89 13.6183 17.1005 13.5238C17.3126 13.4293 17.5529 13.3821 17.8213 13.3821C18.1992 13.3821 18.4958 13.465 18.7112 13.6307C18.9283 13.7964 19.0825 14.0152 19.1736 14.2869ZM21.7868 13.4318V13.929H19.8081V13.4318H21.7868ZM20.3848 12.517H20.9715V16.1562C20.9715 16.322 20.9955 16.4463 21.0435 16.5291C21.0933 16.6103 21.1562 16.665 21.2325 16.6932C21.3104 16.7197 21.3924 16.733 21.4786 16.733C21.5432 16.733 21.5962 16.7296 21.6377 16.723C21.6791 16.7147 21.7122 16.7081 21.7371 16.7031L21.8564 17.2301C21.8166 17.245 21.7611 17.2599 21.6899 17.2749C21.6186 17.2914 21.5283 17.2997 21.4189 17.2997C21.2532 17.2997 21.0908 17.2641 20.9317 17.1928C20.7743 17.1216 20.6433 17.013 20.5389 16.8672C20.4362 16.7214 20.3848 16.5374 20.3848 16.3153V12.517ZM24.1794 17.3295C23.8347 17.3295 23.5322 17.2475 23.2721 17.0835C23.0135 16.9194 22.8114 16.6899 22.6655 16.3949C22.5214 16.0999 22.4493 15.7552 22.4493 15.3608C22.4493 14.9631 22.5214 14.6159 22.6655 14.3192C22.8114 14.0226 23.0135 13.7923 23.2721 13.6282C23.5322 13.4641 23.8347 13.3821 24.1794 13.3821C24.5241 13.3821 24.8257 13.4641 25.0842 13.6282C25.3444 13.7923 25.5466 14.0226 25.6907 14.3192C25.8366 14.6159 25.9095 14.9631 25.9095 15.3608C25.9095 15.7552 25.8366 16.0999 25.6907 16.3949C25.5466 16.6899 25.3444 16.9194 25.0842 17.0835C24.8257 17.2475 24.5241 17.3295 24.1794 17.3295ZM24.1794 16.8026C24.4412 16.8026 24.6566 16.7354 24.8257 16.6012C24.9947 16.467 25.1198 16.2905 25.201 16.0717C25.2822 15.853 25.3228 15.616 25.3228 15.3608C25.3228 15.1056 25.2822 14.8678 25.201 14.6474C25.1198 14.427 24.9947 14.2488 24.8257 14.1129C24.6566 13.977 24.4412 13.9091 24.1794 13.9091C23.9175 13.9091 23.7021 13.977 23.5331 14.1129C23.364 14.2488 23.2389 14.427 23.1577 14.6474C23.0765 14.8678 23.0359 15.1056 23.0359 15.3608C23.0359 15.616 23.0765 15.853 23.1577 16.0717C23.2389 16.2905 23.364 16.467 23.5331 16.6012C23.7021 16.7354 23.9175 16.8026 24.1794 16.8026ZM26.805 17.25V13.4318H27.3718V14.0284H27.4215C27.501 13.8246 27.6295 13.6663 27.8068 13.5536C27.9841 13.4393 28.197 13.3821 28.4456 13.3821C28.6975 13.3821 28.9072 13.4393 29.0745 13.5536C29.2436 13.6663 29.3753 13.8246 29.4698 14.0284H29.5095C29.6073 13.8312 29.754 13.6746 29.9495 13.5586C30.1451 13.4409 30.3796 13.3821 30.653 13.3821C30.9944 13.3821 31.2736 13.489 31.4907 13.7028C31.7078 13.9149 31.8164 14.2455 31.8164 14.6946V17.25H31.2297V14.6946C31.2297 14.4129 31.1527 14.2115 30.9985 14.0906C30.8444 13.9696 30.663 13.9091 30.4541 13.9091C30.1857 13.9091 29.9777 13.9903 29.8302 14.1527C29.6827 14.3134 29.609 14.5173 29.609 14.7642V17.25H29.0124V14.6349C29.0124 14.4179 28.942 14.243 28.8011 14.1104C28.6602 13.9762 28.4788 13.9091 28.2567 13.9091C28.1042 13.9091 27.9617 13.9497 27.8291 14.0309C27.6982 14.1121 27.5922 14.2248 27.511 14.369C27.4314 14.5115 27.3916 14.6764 27.3916 14.8636V17.25H26.805ZM34.4898 17.3295C34.1219 17.3295 33.8046 17.2483 33.5378 17.0859C33.2726 16.9219 33.068 16.6932 32.9238 16.3999C32.7813 16.1049 32.71 15.7618 32.71 15.3707C32.71 14.9796 32.7813 14.6349 32.9238 14.3366C33.068 14.0367 33.2685 13.803 33.5253 13.6357C33.7839 13.4666 34.0855 13.3821 34.4302 13.3821C34.629 13.3821 34.8254 13.4152 35.0193 13.4815C35.2132 13.5478 35.3897 13.6555 35.5488 13.8047C35.7079 13.9522 35.8347 14.1477 35.9291 14.3913C36.0236 14.6349 36.0708 14.9349 36.0708 15.2912V15.5398H33.1276V15.0327H35.4742C35.4742 14.8172 35.4311 14.625 35.3449 14.456C35.2604 14.2869 35.1395 14.1535 34.982 14.0558C34.8262 13.958 34.6423 13.9091 34.4302 13.9091C34.1965 13.9091 33.9943 13.9671 33.8236 14.0831C33.6546 14.1974 33.5245 14.3466 33.4334 14.5305C33.3422 14.7145 33.2967 14.9117 33.2967 15.1222V15.4602C33.2967 15.7486 33.3464 15.993 33.4458 16.1935C33.5469 16.3924 33.6869 16.544 33.8659 16.6484C34.0449 16.7512 34.2529 16.8026 34.4898 16.8026C34.644 16.8026 34.7832 16.781 34.9074 16.7379C35.0334 16.6932 35.1419 16.6269 35.2331 16.5391C35.3242 16.4496 35.3947 16.3385 35.4444 16.206L36.0111 16.3651C35.9515 16.5573 35.8512 16.7263 35.7104 16.8722C35.5695 17.0163 35.3955 17.129 35.1883 17.2102C34.9812 17.2898 34.7484 17.3295 34.4898 17.3295ZM36.9632 17.25V13.4318H37.53V14.0085H37.5697C37.6393 13.8196 37.7653 13.6663 37.9476 13.5487C38.1299 13.431 38.3354 13.3722 38.5641 13.3722C38.6071 13.3722 38.661 13.373 38.7256 13.3746C38.7903 13.3763 38.8391 13.3788 38.8723 13.3821V13.9787C38.8524 13.9737 38.8068 13.9663 38.7356 13.9563C38.666 13.9447 38.5922 13.9389 38.5143 13.9389C38.3287 13.9389 38.163 13.9779 38.0172 14.0558C37.873 14.132 37.7587 14.238 37.6741 14.3739C37.5913 14.5082 37.5498 14.6615 37.5498 14.8338V17.25H36.9632ZM41.616 17.25V12.1591H43.3958C43.7505 12.1591 44.043 12.2204 44.2733 12.343C44.5037 12.464 44.6752 12.6272 44.7879 12.8327C44.9006 13.0366 44.9569 13.2628 44.9569 13.5114C44.9569 13.7301 44.918 13.9107 44.8401 14.0533C44.7638 14.1958 44.6627 14.3085 44.5368 14.3913C44.4125 14.4742 44.2774 14.5355 44.1316 14.5753V14.625C44.2874 14.6349 44.444 14.6896 44.6014 14.7891C44.7589 14.8885 44.8906 15.031 44.9967 15.2166C45.1027 15.4022 45.1558 15.6293 45.1558 15.8977C45.1558 16.1529 45.0978 16.3825 44.9818 16.5863C44.8658 16.7901 44.6826 16.9517 44.4324 17.071C44.1822 17.1903 43.8565 17.25 43.4555 17.25H41.616ZM42.2325 16.7031H43.4555C43.8582 16.7031 44.144 16.6252 44.3131 16.4695C44.4838 16.312 44.5691 16.1214 44.5691 15.8977C44.5691 15.7254 44.5252 15.5663 44.4374 15.4205C44.3495 15.273 44.2244 15.1553 44.062 15.0675C43.8996 14.978 43.7074 14.9332 43.4853 14.9332H42.2325V16.7031ZM42.2325 14.3963H43.3759C43.5615 14.3963 43.7289 14.3598 43.8781 14.2869C44.0289 14.214 44.1482 14.1113 44.236 13.9787C44.3255 13.8461 44.3703 13.6903 44.3703 13.5114C44.3703 13.2876 44.2924 13.0979 44.1366 12.9421C43.9808 12.7847 43.7339 12.706 43.3958 12.706H42.2325V14.3963ZM47.2128 17.3395C46.9708 17.3395 46.7512 17.2939 46.554 17.2028C46.3568 17.11 46.2002 16.9766 46.0842 16.8026C45.9682 16.6269 45.9102 16.4148 45.9102 16.1662C45.9102 15.9474 45.9533 15.7701 46.0395 15.6342C46.1256 15.4967 46.2408 15.389 46.385 15.3111C46.5292 15.2332 46.6883 15.1752 46.8623 15.1371C47.0379 15.0973 47.2144 15.0658 47.3917 15.0426C47.6237 15.0128 47.8118 14.9904 47.956 14.9755C48.1018 14.9589 48.2079 14.9316 48.2742 14.8935C48.3421 14.8554 48.3761 14.7891 48.3761 14.6946V14.6747C48.3761 14.4295 48.309 14.2389 48.1748 14.103C48.0422 13.9671 47.8408 13.8991 47.5707 13.8991C47.2906 13.8991 47.0711 13.9605 46.912 14.0831C46.7529 14.2057 46.641 14.3366 46.5764 14.4759L46.0196 14.277C46.119 14.045 46.2516 13.8643 46.4173 13.7351C46.5847 13.6042 46.767 13.513 46.9642 13.4616C47.163 13.4086 47.3586 13.3821 47.5508 13.3821C47.6735 13.3821 47.8143 13.397 47.9734 13.4268C48.1342 13.455 48.2891 13.5138 48.4383 13.6033C48.5891 13.6928 48.7142 13.8279 48.8136 14.0085C48.913 14.1892 48.9628 14.4311 48.9628 14.7344V17.25H48.3761V16.733H48.3463C48.3065 16.8158 48.2402 16.9045 48.1474 16.9989C48.0546 17.0934 47.9312 17.1738 47.777 17.2401C47.6229 17.3063 47.4348 17.3395 47.2128 17.3395ZM47.3022 16.8125C47.5343 16.8125 47.7298 16.7669 47.8889 16.6758C48.0496 16.5846 48.1706 16.467 48.2518 16.3228C48.3347 16.1786 48.3761 16.027 48.3761 15.8679V15.331C48.3513 15.3608 48.2966 15.3881 48.212 15.413C48.1292 15.4362 48.0331 15.4569 47.9237 15.4751C47.816 15.4917 47.7107 15.5066 47.608 15.5199C47.5069 15.5315 47.4249 15.5414 47.3619 15.5497C47.2094 15.5696 47.0669 15.6019 46.9343 15.6467C46.8034 15.6897 46.6974 15.7552 46.6162 15.843C46.5366 15.9292 46.4968 16.0469 46.4968 16.196C46.4968 16.3999 46.5723 16.554 46.7231 16.6584C46.8755 16.7611 47.0686 16.8125 47.3022 16.8125ZM52.7381 14.2869L52.2111 14.4361C52.1779 14.3482 52.129 14.2629 52.0644 14.18C52.0014 14.0955 51.9153 14.0259 51.8059 13.9712C51.6965 13.9165 51.5565 13.8892 51.3858 13.8892C51.1521 13.8892 50.9574 13.9431 50.8016 14.0508C50.6475 14.1568 50.5704 14.2919 50.5704 14.456C50.5704 14.6018 50.6235 14.717 50.7295 14.8015C50.8356 14.886 51.0013 14.9564 51.2267 15.0128L51.7935 15.152C52.1348 15.2348 52.3892 15.3616 52.5566 15.5323C52.724 15.7013 52.8077 15.9193 52.8077 16.1861C52.8077 16.4048 52.7447 16.6004 52.6187 16.7727C52.4945 16.9451 52.3204 17.081 52.0967 17.1804C51.873 17.2798 51.6128 17.3295 51.3162 17.3295C50.9267 17.3295 50.6044 17.245 50.3492 17.076C50.094 16.907 49.9324 16.66 49.8645 16.3352L50.4213 16.196C50.4743 16.4015 50.5746 16.5556 50.7221 16.6584C50.8712 16.7611 51.0659 16.8125 51.3062 16.8125C51.5797 16.8125 51.7968 16.7545 51.9575 16.6385C52.1199 16.5208 52.2011 16.38 52.2011 16.2159C52.2011 16.0833 52.1547 15.9723 52.0619 15.8828C51.9691 15.7917 51.8266 15.7237 51.6344 15.679L50.998 15.5298C50.6483 15.447 50.3915 15.3185 50.2274 15.1445C50.065 14.9689 49.9838 14.7493 49.9838 14.4858C49.9838 14.2704 50.0443 14.0798 50.1653 13.9141C50.2879 13.7483 50.4544 13.6183 50.6649 13.5238C50.877 13.4293 51.1173 13.3821 51.3858 13.3821C51.7636 13.3821 52.0603 13.465 52.2757 13.6307C52.4928 13.7964 52.6469 14.0152 52.7381 14.2869ZM55.2916 17.3295C54.9237 17.3295 54.6063 17.2483 54.3395 17.0859C54.0744 16.9219 53.8697 16.6932 53.7255 16.3999C53.583 16.1049 53.5118 15.7618 53.5118 15.3707C53.5118 14.9796 53.583 14.6349 53.7255 14.3366C53.8697 14.0367 54.0702 13.803 54.3271 13.6357C54.5856 13.4666 54.8872 13.3821 55.2319 13.3821C55.4308 13.3821 55.6272 13.4152 55.8211 13.4815C56.015 13.5478 56.1915 13.6555 56.3505 13.8047C56.5096 13.9522 56.6364 14.1477 56.7309 14.3913C56.8253 14.6349 56.8726 14.9349 56.8726 15.2912V15.5398H53.9294V15.0327H56.276C56.276 14.8172 56.2329 14.625 56.1467 14.456C56.0622 14.2869 55.9412 14.1535 55.7838 14.0558C55.628 13.958 55.4441 13.9091 55.2319 13.9091C54.9983 13.9091 54.7961 13.9671 54.6254 14.0831C54.4564 14.1974 54.3263 14.3466 54.2351 14.5305C54.144 14.7145 54.0984 14.9117 54.0984 15.1222V15.4602C54.0984 15.7486 54.1481 15.993 54.2476 16.1935C54.3486 16.3924 54.4887 16.544 54.6677 16.6484C54.8466 16.7512 55.0546 16.8026 55.2916 16.8026C55.4457 16.8026 55.5849 16.781 55.7092 16.7379C55.8352 16.6932 55.9437 16.6269 56.0348 16.5391C56.126 16.4496 56.1964 16.3385 56.2461 16.206L56.8129 16.3651C56.7532 16.5573 56.653 16.7263 56.5121 16.8722C56.3713 17.0163 56.1973 17.129 55.9901 17.2102C55.783 17.2898 55.5501 17.3295 55.2916 17.3295Z" fill="white"/>
</svg>
