<svg width="58" height="29" viewBox="0 0 58 29" fill="none" xmlns="http://www.w3.org/2000/svg">
<rect x="0.5" y="0.5" width="57" height="28" rx="8.5" fill="white"/>
<rect x="0.5" y="0.5" width="57" height="28" rx="8.5" stroke="#E4E5E7"/>
<path d="M20.4563 17.5V12.4091H22.1765C22.5742 12.4091 22.9007 12.477 23.1559 12.6129C23.4111 12.7472 23.6 12.9319 23.7227 13.1673C23.8453 13.4026 23.9066 13.6702 23.9066 13.9702C23.9066 14.2701 23.8453 14.5361 23.7227 14.7681C23.6 15.0001 23.4119 15.1824 23.1584 15.315C22.9048 15.4459 22.5808 15.5114 22.1864 15.5114H20.7944V14.9545H22.1665C22.4383 14.9545 22.6571 14.9148 22.8228 14.8352C22.9902 14.7557 23.1112 14.643 23.1857 14.4972C23.262 14.3497 23.3001 14.174 23.3001 13.9702C23.3001 13.7663 23.262 13.5882 23.1857 13.4357C23.1095 13.2833 22.9877 13.1656 22.8203 13.0827C22.6529 12.9982 22.4317 12.956 22.1566 12.956H21.0728V17.5H20.4563ZM22.8526 15.2131L24.1055 17.5H23.3896L22.1566 15.2131H22.8526ZM26.4142 17.5795C26.0463 17.5795 25.7289 17.4983 25.4621 17.3359C25.1969 17.1719 24.9923 16.9432 24.8481 16.6499C24.7056 16.3549 24.6343 16.0118 24.6343 15.6207C24.6343 15.2296 24.7056 14.8849 24.8481 14.5866C24.9923 14.2867 25.1928 14.053 25.4497 13.8857C25.7082 13.7166 26.0098 13.6321 26.3545 13.6321C26.5534 13.6321 26.7497 13.6652 26.9436 13.7315C27.1375 13.7978 27.314 13.9055 27.4731 14.0547C27.6322 14.2022 27.759 14.3977 27.8534 14.6413C27.9479 14.8849 27.9951 15.1849 27.9951 15.5412V15.7898H25.0519V15.2827H27.3985C27.3985 15.0672 27.3554 14.875 27.2693 14.706C27.1847 14.5369 27.0638 14.4035 26.9063 14.3058C26.7506 14.208 26.5666 14.1591 26.3545 14.1591C26.1208 14.1591 25.9186 14.2171 25.748 14.3331C25.5789 14.4474 25.4488 14.5966 25.3577 14.7805C25.2665 14.9645 25.221 15.1617 25.221 15.3722V15.7102C25.221 15.9986 25.2707 16.243 25.3701 16.4435C25.4712 16.6424 25.6112 16.794 25.7902 16.8984C25.9692 17.0012 26.1772 17.0526 26.4142 17.0526C26.5683 17.0526 26.7075 17.031 26.8318 16.9879C26.9577 16.9432 27.0663 16.8769 27.1574 16.7891C27.2486 16.6996 27.319 16.5885 27.3687 16.456L27.9355 16.6151C27.8758 16.8073 27.7755 16.9763 27.6347 17.1222C27.4938 17.2663 27.3198 17.379 27.1127 17.4602C26.9055 17.5398 26.6727 17.5795 26.4142 17.5795ZM30.548 13.6818V14.179H28.5693V13.6818H30.548ZM29.146 12.767H29.7327V16.4062C29.7327 16.572 29.7567 16.6963 29.8048 16.7791C29.8545 16.8603 29.9175 16.915 29.9937 16.9432C30.0716 16.9697 30.1536 16.983 30.2398 16.983C30.3044 16.983 30.3575 16.9796 30.3989 16.973C30.4403 16.9647 30.4735 16.9581 30.4983 16.9531L30.6176 17.4801C30.5779 17.495 30.5223 17.5099 30.4511 17.5249C30.3798 17.5414 30.2895 17.5497 30.1801 17.5497C30.0144 17.5497 29.852 17.5141 29.6929 17.4428C29.5355 17.3716 29.4046 17.263 29.3002 17.1172C29.1974 16.9714 29.146 16.7874 29.146 16.5653V12.767ZM32.5541 17.5895C32.3121 17.5895 32.0925 17.5439 31.8953 17.4528C31.6981 17.36 31.5415 17.2266 31.4255 17.0526C31.3095 16.8769 31.2515 16.6648 31.2515 16.4162C31.2515 16.1974 31.2946 16.0201 31.3808 15.8842C31.4669 15.7467 31.5821 15.639 31.7263 15.5611C31.8705 15.4832 32.0296 15.4252 32.2036 15.3871C32.3792 15.3473 32.5557 15.3158 32.733 15.2926C32.9651 15.2628 33.1531 15.2404 33.2973 15.2255C33.4432 15.2089 33.5492 15.1816 33.6155 15.1435C33.6834 15.1054 33.7174 15.0391 33.7174 14.9446V14.9247C33.7174 14.6795 33.6503 14.4889 33.5161 14.353C33.3835 14.2171 33.1821 14.1491 32.912 14.1491C32.632 14.1491 32.4124 14.2105 32.2533 14.3331C32.0942 14.4557 31.9823 14.5866 31.9177 14.7259L31.3609 14.527C31.4603 14.295 31.5929 14.1143 31.7586 13.9851C31.926 13.8542 32.1083 13.763 32.3055 13.7116C32.5044 13.6586 32.6999 13.6321 32.8921 13.6321C33.0148 13.6321 33.1556 13.647 33.3147 13.6768C33.4755 13.705 33.6304 13.7638 33.7796 13.8533C33.9304 13.9428 34.0555 14.0779 34.1549 14.2585C34.2544 14.4392 34.3041 14.6811 34.3041 14.9844V17.5H33.7174V16.983H33.6876C33.6478 17.0658 33.5815 17.1545 33.4887 17.2489C33.3959 17.3434 33.2725 17.4238 33.1183 17.4901C32.9642 17.5563 32.7761 17.5895 32.5541 17.5895ZM32.6436 17.0625C32.8756 17.0625 33.0711 17.0169 33.2302 16.9258C33.391 16.8346 33.5119 16.717 33.5931 16.5728C33.676 16.4286 33.7174 16.277 33.7174 16.1179V15.581C33.6926 15.6108 33.6379 15.6381 33.5534 15.663C33.4705 15.6862 33.3744 15.7069 33.265 15.7251C33.1573 15.7417 33.0521 15.7566 32.9493 15.7699C32.8482 15.7815 32.7662 15.7914 32.7032 15.7997C32.5508 15.8196 32.4082 15.8519 32.2757 15.8967C32.1447 15.9397 32.0387 16.0052 31.9575 16.093C31.8779 16.1792 31.8382 16.2969 31.8382 16.446C31.8382 16.6499 31.9136 16.804 32.0644 16.9084C32.2168 17.0111 32.4099 17.0625 32.6436 17.0625ZM35.3748 17.5V13.6818H35.9615V17.5H35.3748ZM35.6731 13.0455C35.5588 13.0455 35.4602 13.0065 35.3773 12.9286C35.2961 12.8507 35.2555 12.7571 35.2555 12.6477C35.2555 12.5384 35.2961 12.4447 35.3773 12.3668C35.4602 12.2889 35.5588 12.25 35.6731 12.25C35.7875 12.25 35.8852 12.2889 35.9664 12.3668C36.0493 12.4447 36.0907 12.5384 36.0907 12.6477C36.0907 12.7571 36.0493 12.8507 35.9664 12.9286C35.8852 13.0065 35.7875 13.0455 35.6731 13.0455ZM37.6226 12.4091V17.5H37.036V12.4091H37.6226Z" fill="#5F6774"/>
</svg>
