<svg width="58" height="29" viewBox="0 0 58 29" fill="none" xmlns="http://www.w3.org/2000/svg">
<rect x="0.5" y="0.5" width="57" height="28" rx="8.5" fill="white"/>
<rect x="0.5" y="0.5" width="57" height="28" rx="8.5" stroke="#E4E5E7"/>
<path d="M16.9924 14H16.3759C16.3394 13.8227 16.2756 13.6669 16.1845 13.5327C16.095 13.3984 15.9856 13.2857 15.8564 13.1946C15.7288 13.1018 15.5871 13.0322 15.4313 12.9858C15.2755 12.9394 15.1131 12.9162 14.9441 12.9162C14.6358 12.9162 14.3566 12.9941 14.1064 13.1499C13.8578 13.3056 13.6597 13.5352 13.5123 13.8384C13.3664 14.1417 13.2935 14.5137 13.2935 14.9545C13.2935 15.3954 13.3664 15.7674 13.5123 16.0707C13.6597 16.3739 13.8578 16.6035 14.1064 16.7592C14.3566 16.915 14.6358 16.9929 14.9441 16.9929C15.1131 16.9929 15.2755 16.9697 15.4313 16.9233C15.5871 16.8769 15.7288 16.8081 15.8564 16.717C15.9856 16.6242 16.095 16.5107 16.1845 16.3764C16.2756 16.2405 16.3394 16.0848 16.3759 15.9091H16.9924C16.946 16.1693 16.8614 16.4021 16.7388 16.6076C16.6162 16.8131 16.4637 16.9879 16.2814 17.1321C16.0991 17.2746 15.8945 17.3832 15.6674 17.4577C15.4421 17.5323 15.2009 17.5696 14.9441 17.5696C14.5099 17.5696 14.1238 17.4635 13.7857 17.2514C13.4476 17.0393 13.1816 16.7377 12.9877 16.3466C12.7939 15.9555 12.6969 15.4915 12.6969 14.9545C12.6969 14.4176 12.7939 13.9536 12.9877 13.5625C13.1816 13.1714 13.4476 12.8698 13.7857 12.6577C14.1238 12.4455 14.5099 12.3395 14.9441 12.3395C15.2009 12.3395 15.4421 12.3768 15.6674 12.4513C15.8945 12.5259 16.0991 12.6353 16.2814 12.7795C16.4637 12.922 16.6162 13.096 16.7388 13.3015C16.8614 13.5053 16.946 13.7382 16.9924 14ZM19.4601 17.5795C19.1154 17.5795 18.813 17.4975 18.5528 17.3335C18.2943 17.1694 18.0921 16.9399 17.9463 16.6449C17.8021 16.3499 17.73 16.0052 17.73 15.6108C17.73 15.2131 17.8021 14.8659 17.9463 14.5692C18.0921 14.2726 18.2943 14.0423 18.5528 13.8782C18.813 13.7141 19.1154 13.6321 19.4601 13.6321C19.8048 13.6321 20.1064 13.7141 20.365 13.8782C20.6251 14.0423 20.8273 14.2726 20.9715 14.5692C21.1173 14.8659 21.1903 15.2131 21.1903 15.6108C21.1903 16.0052 21.1173 16.3499 20.9715 16.6449C20.8273 16.9399 20.6251 17.1694 20.365 17.3335C20.1064 17.4975 19.8048 17.5795 19.4601 17.5795ZM19.4601 17.0526C19.722 17.0526 19.9374 16.9854 20.1064 16.8512C20.2755 16.717 20.4006 16.5405 20.4818 16.3217C20.563 16.103 20.6036 15.866 20.6036 15.6108C20.6036 15.3556 20.563 15.1178 20.4818 14.8974C20.4006 14.677 20.2755 14.4988 20.1064 14.3629C19.9374 14.227 19.722 14.1591 19.4601 14.1591C19.1983 14.1591 18.9829 14.227 18.8138 14.3629C18.6448 14.4988 18.5197 14.677 18.4385 14.8974C18.3573 15.1178 18.3167 15.3556 18.3167 15.6108C18.3167 15.866 18.3573 16.103 18.4385 16.3217C18.5197 16.5405 18.6448 16.717 18.8138 16.8512C18.9829 16.9854 19.1983 17.0526 19.4601 17.0526ZM22.0858 17.5V13.6818H22.6525V14.2585H22.6923C22.7619 14.0696 22.8878 13.9163 23.0701 13.7987C23.2524 13.681 23.4579 13.6222 23.6866 13.6222C23.7297 13.6222 23.7836 13.623 23.8482 13.6246C23.9128 13.6263 23.9617 13.6288 23.9949 13.6321V14.2287C23.975 14.2237 23.9294 14.2163 23.8581 14.2063C23.7885 14.1947 23.7148 14.1889 23.6369 14.1889C23.4513 14.1889 23.2856 14.2279 23.1397 14.3058C22.9956 14.382 22.8812 14.488 22.7967 14.6239C22.7138 14.7582 22.6724 14.9115 22.6724 15.0838V17.5H22.0858ZM24.6903 18.9318V13.6818H25.257V14.2884H25.3266C25.3697 14.2221 25.4294 14.1375 25.5056 14.0348C25.5835 13.9304 25.6945 13.8376 25.8387 13.7564C25.9845 13.6735 26.1817 13.6321 26.4303 13.6321C26.7518 13.6321 27.0352 13.7125 27.2805 13.8732C27.5257 14.034 27.7171 14.2618 27.8547 14.5568C27.9922 14.8518 28.061 15.1998 28.061 15.6009C28.061 16.0052 27.9922 16.3557 27.8547 16.6523C27.7171 16.9473 27.5265 17.176 27.2829 17.3384C27.0393 17.4992 26.7584 17.5795 26.4403 17.5795C26.195 17.5795 25.9986 17.5389 25.8511 17.4577C25.7036 17.3749 25.5901 17.2812 25.5106 17.1768C25.431 17.0708 25.3697 16.983 25.3266 16.9134H25.2769V18.9318H24.6903ZM25.267 15.5909C25.267 15.8793 25.3092 16.1336 25.3937 16.354C25.4782 16.5728 25.6017 16.7443 25.7641 16.8686C25.9265 16.9912 26.1254 17.0526 26.3607 17.0526C26.606 17.0526 26.8106 16.9879 26.9747 16.8587C27.1404 16.7277 27.2647 16.5521 27.3476 16.3317C27.4321 16.1096 27.4743 15.8627 27.4743 15.5909C27.4743 15.3224 27.4329 15.0805 27.3501 14.8651C27.2689 14.648 27.1454 14.4764 26.9797 14.3505C26.8156 14.2229 26.6093 14.1591 26.3607 14.1591C26.1221 14.1591 25.9215 14.2196 25.7591 14.3406C25.5967 14.4599 25.4741 14.6272 25.3912 14.8427C25.3084 15.0565 25.267 15.3059 25.267 15.5909ZM30.507 17.5795C30.1623 17.5795 29.8599 17.4975 29.5997 17.3335C29.3412 17.1694 29.139 16.9399 28.9932 16.6449C28.849 16.3499 28.7769 16.0052 28.7769 15.6108C28.7769 15.2131 28.849 14.8659 28.9932 14.5692C29.139 14.2726 29.3412 14.0423 29.5997 13.8782C29.8599 13.7141 30.1623 13.6321 30.507 13.6321C30.8517 13.6321 31.1533 13.7141 31.4118 13.8782C31.672 14.0423 31.8742 14.2726 32.0184 14.5692C32.1642 14.8659 32.2371 15.2131 32.2371 15.6108C32.2371 16.0052 32.1642 16.3499 32.0184 16.6449C31.8742 16.9399 31.672 17.1694 31.4118 17.3335C31.1533 17.4975 30.8517 17.5795 30.507 17.5795ZM30.507 17.0526C30.7689 17.0526 30.9843 16.9854 31.1533 16.8512C31.3224 16.717 31.4475 16.5405 31.5287 16.3217C31.6099 16.103 31.6505 15.866 31.6505 15.6108C31.6505 15.3556 31.6099 15.1178 31.5287 14.8974C31.4475 14.677 31.3224 14.4988 31.1533 14.3629C30.9843 14.227 30.7689 14.1591 30.507 14.1591C30.2452 14.1591 30.0297 14.227 29.8607 14.3629C29.6917 14.4988 29.5666 14.677 29.4854 14.8974C29.4041 15.1178 29.3635 15.3556 29.3635 15.6108C29.3635 15.866 29.4041 16.103 29.4854 16.3217C29.5666 16.5405 29.6917 16.717 29.8607 16.8512C30.0297 16.9854 30.2452 17.0526 30.507 17.0526ZM33.1326 17.5V13.6818H33.6994V14.2585H33.7392C33.8088 14.0696 33.9347 13.9163 34.117 13.7987C34.2993 13.681 34.5048 13.6222 34.7335 13.6222C34.7766 13.6222 34.8304 13.623 34.8951 13.6246C34.9597 13.6263 35.0086 13.6288 35.0417 13.6321V14.2287C35.0218 14.2237 34.9763 14.2163 34.905 14.2063C34.8354 14.1947 34.7617 14.1889 34.6838 14.1889C34.4982 14.1889 34.3324 14.2279 34.1866 14.3058C34.0424 14.382 33.9281 14.488 33.8436 14.6239C33.7607 14.7582 33.7193 14.9115 33.7193 15.0838V17.5H33.1326ZM36.8607 17.5895C36.6188 17.5895 36.3992 17.5439 36.202 17.4528C36.0048 17.36 35.8482 17.2266 35.7322 17.0526C35.6162 16.8769 35.5581 16.6648 35.5581 16.4162C35.5581 16.1974 35.6012 16.0201 35.6874 15.8842C35.7736 15.7467 35.8888 15.639 36.0329 15.5611C36.1771 15.4832 36.3362 15.4252 36.5102 15.3871C36.6859 15.3473 36.8624 15.3158 37.0397 15.2926C37.2717 15.2628 37.4598 15.2404 37.604 15.2255C37.7498 15.2089 37.8559 15.1816 37.9221 15.1435C37.9901 15.1054 38.0241 15.0391 38.0241 14.9446V14.9247C38.0241 14.6795 37.9569 14.4889 37.8227 14.353C37.6901 14.2171 37.4888 14.1491 37.2187 14.1491C36.9386 14.1491 36.719 14.2105 36.5599 14.3331C36.4008 14.4557 36.289 14.5866 36.2243 14.7259L35.6675 14.527C35.767 14.295 35.8995 14.1143 36.0653 13.9851C36.2326 13.8542 36.4149 13.763 36.6121 13.7116C36.811 13.6586 37.0065 13.6321 37.1988 13.6321C37.3214 13.6321 37.4623 13.647 37.6214 13.6768C37.7821 13.705 37.9371 13.7638 38.0862 13.8533C38.237 13.9428 38.3621 14.0779 38.4616 14.2585C38.561 14.4392 38.6107 14.6811 38.6107 14.9844V17.5H38.0241V16.983H37.9942C37.9545 17.0658 37.8882 17.1545 37.7954 17.2489C37.7026 17.3434 37.5791 17.4238 37.425 17.4901C37.2709 17.5563 37.0828 17.5895 36.8607 17.5895ZM36.9502 17.0625C37.1822 17.0625 37.3778 17.0169 37.5368 16.9258C37.6976 16.8346 37.8186 16.717 37.8998 16.5728C37.9826 16.4286 38.0241 16.277 38.0241 16.1179V15.581C37.9992 15.6108 37.9445 15.6381 37.86 15.663C37.7771 15.6862 37.681 15.7069 37.5716 15.7251C37.4639 15.7417 37.3587 15.7566 37.2559 15.7699C37.1549 15.7815 37.0728 15.7914 37.0099 15.7997C36.8574 15.8196 36.7149 15.8519 36.5823 15.8967C36.4514 15.9397 36.3453 16.0052 36.2641 16.093C36.1846 16.1792 36.1448 16.2969 36.1448 16.446C36.1448 16.6499 36.2202 16.804 36.371 16.9084C36.5235 17.0111 36.7165 17.0625 36.9502 17.0625ZM41.342 13.6818V14.179H39.3633V13.6818H41.342ZM39.94 12.767H40.5266V16.4062C40.5266 16.572 40.5507 16.6963 40.5987 16.7791C40.6484 16.8603 40.7114 16.915 40.7876 16.9432C40.8655 16.9697 40.9476 16.983 41.0337 16.983C41.0984 16.983 41.1514 16.9796 41.1928 16.973C41.2343 16.9647 41.2674 16.9581 41.2923 16.9531L41.4116 17.4801C41.3718 17.495 41.3163 17.5099 41.245 17.5249C41.1738 17.5414 41.0835 17.5497 40.9741 17.5497C40.8084 17.5497 40.646 17.5141 40.4869 17.4428C40.3294 17.3716 40.1985 17.263 40.0941 17.1172C39.9914 16.9714 39.94 16.7874 39.94 16.5653V12.767ZM43.7843 17.5795C43.4164 17.5795 43.099 17.4983 42.8322 17.3359C42.5671 17.1719 42.3624 16.9432 42.2182 16.6499C42.0757 16.3549 42.0044 16.0118 42.0044 15.6207C42.0044 15.2296 42.0757 14.8849 42.2182 14.5866C42.3624 14.2867 42.5629 14.053 42.8198 13.8857C43.0783 13.7166 43.3799 13.6321 43.7246 13.6321C43.9235 13.6321 44.1199 13.6652 44.3137 13.7315C44.5076 13.7978 44.6841 13.9055 44.8432 14.0547C45.0023 14.2022 45.1291 14.3977 45.2235 14.6413C45.318 14.8849 45.3652 15.1849 45.3652 15.5412V15.7898H42.4221V15.2827H44.7686C44.7686 15.0672 44.7256 14.875 44.6394 14.706C44.5549 14.5369 44.4339 14.4035 44.2765 14.3058C44.1207 14.208 43.9367 14.1591 43.7246 14.1591C43.4909 14.1591 43.2888 14.2171 43.1181 14.3331C42.949 14.4474 42.819 14.5966 42.7278 14.7805C42.6367 14.9645 42.5911 15.1617 42.5911 15.3722V15.7102C42.5911 15.9986 42.6408 16.243 42.7402 16.4435C42.8413 16.6424 42.9814 16.794 43.1603 16.8984C43.3393 17.0012 43.5473 17.0526 43.7843 17.0526C43.9384 17.0526 44.0776 17.031 44.2019 16.9879C44.3278 16.9432 44.4364 16.8769 44.5275 16.7891C44.6187 16.6996 44.6891 16.5885 44.7388 16.456L45.3056 16.6151C45.2459 16.8073 45.1457 16.9763 45.0048 17.1222C44.8639 17.2663 44.6899 17.379 44.4828 17.4602C44.2756 17.5398 44.0428 17.5795 43.7843 17.5795Z" fill="#5F6774"/>
</svg>
