<svg width="58" height="29" viewBox="0 0 58 29" fill="none" xmlns="http://www.w3.org/2000/svg">
<rect x="0.5" y="0.5" width="57" height="28" rx="8.5" fill="#4776F4"/>
<rect x="0.5" y="0.5" width="57" height="28" rx="8.5" stroke="#4776F4"/>
<path d="M21.2067 12.706V12.1591H25.0249V12.706H23.4241V17.25H22.8076V12.706H21.2067ZM26.8942 17.3295C26.5495 17.3295 26.2471 17.2475 25.9869 17.0835C25.7284 16.9194 25.5262 16.6899 25.3804 16.3949C25.2362 16.0999 25.1641 15.7552 25.1641 15.3608C25.1641 14.9631 25.2362 14.6159 25.3804 14.3192C25.5262 14.0226 25.7284 13.7923 25.9869 13.6282C26.2471 13.4641 26.5495 13.3821 26.8942 13.3821C27.2389 13.3821 27.5405 13.4641 27.7991 13.6282C28.0592 13.7923 28.2614 14.0226 28.4056 14.3192C28.5514 14.6159 28.6243 14.9631 28.6243 15.3608C28.6243 15.7552 28.5514 16.0999 28.4056 16.3949C28.2614 16.6899 28.0592 16.9194 27.7991 17.0835C27.5405 17.2475 27.2389 17.3295 26.8942 17.3295ZM26.8942 16.8026C27.1561 16.8026 27.3715 16.7354 27.5405 16.6012C27.7096 16.467 27.8347 16.2905 27.9159 16.0717C27.9971 15.853 28.0377 15.616 28.0377 15.3608C28.0377 15.1056 27.9971 14.8678 27.9159 14.6474C27.8347 14.427 27.7096 14.2488 27.5405 14.1129C27.3715 13.977 27.1561 13.9091 26.8942 13.9091C26.6324 13.9091 26.4169 13.977 26.2479 14.1129C26.0789 14.2488 25.9538 14.427 25.8726 14.6474C25.7914 14.8678 25.7508 15.1056 25.7508 15.3608C25.7508 15.616 25.7914 15.853 25.8726 16.0717C25.9538 16.2905 26.0789 16.467 26.2479 16.6012C26.4169 16.7354 26.6324 16.8026 26.8942 16.8026ZM31.1804 13.4318V13.929H29.2017V13.4318H31.1804ZM29.7784 12.517H30.365V16.1562C30.365 16.322 30.389 16.4463 30.4371 16.5291C30.4868 16.6103 30.5498 16.665 30.626 16.6932C30.7039 16.7197 30.7859 16.733 30.8721 16.733C30.9367 16.733 30.9898 16.7296 31.0312 16.723C31.0726 16.7147 31.1058 16.7081 31.1306 16.7031L31.25 17.2301C31.2102 17.245 31.1547 17.2599 31.0834 17.2749C31.0121 17.2914 30.9218 17.2997 30.8125 17.2997C30.6467 17.2997 30.4843 17.2641 30.3252 17.1928C30.1678 17.1216 30.0369 17.013 29.9325 16.8672C29.8297 16.7214 29.7784 16.5374 29.7784 16.3153V12.517ZM33.1864 17.3395C32.9444 17.3395 32.7249 17.2939 32.5277 17.2028C32.3304 17.11 32.1738 16.9766 32.0578 16.8026C31.9418 16.6269 31.8838 16.4148 31.8838 16.1662C31.8838 15.9474 31.9269 15.7701 32.0131 15.6342C32.0993 15.4967 32.2144 15.389 32.3586 15.3111C32.5028 15.2332 32.6619 15.1752 32.8359 15.1371C33.0116 15.0973 33.188 15.0658 33.3654 15.0426C33.5974 15.0128 33.7855 14.9904 33.9296 14.9755C34.0755 14.9589 34.1815 14.9316 34.2478 14.8935C34.3158 14.8554 34.3497 14.7891 34.3497 14.6946V14.6747C34.3497 14.4295 34.2826 14.2389 34.1484 14.103C34.0158 13.9671 33.8145 13.8991 33.5443 13.8991C33.2643 13.8991 33.0447 13.9605 32.8856 14.0831C32.7265 14.2057 32.6147 14.3366 32.55 14.4759L31.9932 14.277C32.0926 14.045 32.2252 13.8643 32.3909 13.7351C32.5583 13.6042 32.7406 13.513 32.9378 13.4616C33.1367 13.4086 33.3322 13.3821 33.5245 13.3821C33.6471 13.3821 33.788 13.397 33.947 13.4268C34.1078 13.455 34.2627 13.5138 34.4119 13.6033C34.5627 13.6928 34.6878 13.8279 34.7872 14.0085C34.8867 14.1892 34.9364 14.4311 34.9364 14.7344V17.25H34.3497V16.733H34.3199C34.2801 16.8158 34.2139 16.9045 34.121 16.9989C34.0282 17.0934 33.9048 17.1738 33.7507 17.2401C33.5965 17.3063 33.4085 17.3395 33.1864 17.3395ZM33.2759 16.8125C33.5079 16.8125 33.7034 16.7669 33.8625 16.6758C34.0233 16.5846 34.1443 16.467 34.2255 16.3228C34.3083 16.1786 34.3497 16.027 34.3497 15.8679V15.331C34.3249 15.3608 34.2702 15.3881 34.1857 15.413C34.1028 15.4362 34.0067 15.4569 33.8973 15.4751C33.7896 15.4917 33.6844 15.5066 33.5816 15.5199C33.4805 15.5315 33.3985 15.5414 33.3355 15.5497C33.1831 15.5696 33.0406 15.6019 32.908 15.6467C32.7771 15.6897 32.671 15.7552 32.5898 15.843C32.5103 15.9292 32.4705 16.0469 32.4705 16.196C32.4705 16.3999 32.5459 16.554 32.6967 16.6584C32.8492 16.7611 33.0422 16.8125 33.2759 16.8125ZM36.5938 12.1591V17.25H36.0071V12.1591H36.5938Z" fill="white"/>
</svg>
