<svg width="64" height="29" viewBox="0 0 64 29" fill="none" xmlns="http://www.w3.org/2000/svg">
<rect x="0.5" y="0.5" width="63" height="28" rx="8.5" fill="white"/>
<rect x="0.5" y="0.5" width="63" height="28" rx="8.5" stroke="#E4E5E7"/>
<path d="M29.4962 12.4091V17.5H28.8996L26.1254 13.5028H26.0757V17.5H25.4593V12.4091H26.0558L28.8399 16.4162H28.8896V12.4091H29.4962ZM30.4513 12.956V12.4091H34.2695V12.956H32.6687V17.5H32.0522V12.956H30.4513ZM35.221 17.5V12.4091H37.0008C37.3554 12.4091 37.6479 12.4704 37.8783 12.593C38.1086 12.714 38.2802 12.8772 38.3928 13.0827C38.5055 13.2866 38.5619 13.5128 38.5619 13.7614C38.5619 13.9801 38.5229 14.1607 38.445 14.3033C38.3688 14.4458 38.2677 14.5585 38.1418 14.6413C38.0175 14.7242 37.8824 14.7855 37.7366 14.8253V14.875C37.8924 14.8849 38.049 14.9396 38.2064 15.0391C38.3638 15.1385 38.4956 15.281 38.6017 15.4666C38.7077 15.6522 38.7607 15.8793 38.7607 16.1477C38.7607 16.4029 38.7027 16.6325 38.5867 16.8363C38.4707 17.0401 38.2876 17.2017 38.0374 17.321C37.7871 17.4403 37.4615 17.5 37.0605 17.5H35.221ZM35.8374 16.9531H37.0605C37.4632 16.9531 37.749 16.8752 37.9181 16.7195C38.0887 16.562 38.1741 16.3714 38.1741 16.1477C38.1741 15.9754 38.1302 15.8163 38.0423 15.6705C37.9545 15.523 37.8294 15.4053 37.667 15.3175C37.5046 15.228 37.3124 15.1832 37.0903 15.1832H35.8374V16.9531ZM35.8374 14.6463H36.9809C37.1665 14.6463 37.3339 14.6098 37.483 14.5369C37.6338 14.464 37.7532 14.3613 37.841 14.2287C37.9305 14.0961 37.9752 13.9403 37.9752 13.7614C37.9752 13.5376 37.8973 13.3479 37.7416 13.1921C37.5858 13.0347 37.3389 12.956 37.0008 12.956H35.8374V14.6463Z" fill="#5F6774"/>
</svg>
